<mxfile host="app.diagrams.net" agent="Mozilla/5.0 (Windows NT 10.0; Win64; x64) AppleWebKit/537.36 (KHTML, like Gecko) Chrome/134.0.0.0 Safari/537.36 Edg/134.0.0.0" version="26.1.3">
  <diagram name="main()" id="aO4VV1BkPGHHD6uGdVux">
    <mxGraphModel dx="786" dy="501" grid="1" gridSize="10" guides="1" tooltips="1" connect="1" arrows="1" fold="1" page="1" pageScale="1" pageWidth="827" pageHeight="1169" math="0" shadow="0">
      <root>
        <mxCell id="0" />
        <mxCell id="1" parent="0" />
        <mxCell id="AuoDzLXZq2x2FkoKTNY2-1" value="Start" style="ellipse;whiteSpace=wrap;html=1;" vertex="1" parent="1">
          <mxGeometry x="260" y="20" width="100" height="60" as="geometry" />
        </mxCell>
        <mxCell id="AuoDzLXZq2x2FkoKTNY2-2" value="Initialize QApplication" style="rounded=1;whiteSpace=wrap;html=1;" vertex="1" parent="1">
          <mxGeometry x="220" y="100" width="180" height="60" as="geometry" />
        </mxCell>
        <mxCell id="AuoDzLXZq2x2FkoKTNY2-3" value="Create MainWindow" style="rounded=1;whiteSpace=wrap;html=1;" vertex="1" parent="1">
          <mxGeometry x="220" y="180" width="180" height="60" as="geometry" />
        </mxCell>
        <mxCell id="AuoDzLXZq2x2FkoKTNY2-4" value="Show MainWindow" style="rounded=1;whiteSpace=wrap;html=1;" vertex="1" parent="1">
          <mxGeometry x="220" y="260" width="180" height="60" as="geometry" />
        </mxCell>
        <mxCell id="AuoDzLXZq2x2FkoKTNY2-5" value="Enter Qt Main Loop (app.exec_())" style="rounded=1;whiteSpace=wrap;html=1;" vertex="1" parent="1">
          <mxGeometry x="220" y="340" width="180" height="60" as="geometry" />
        </mxCell>
        <mxCell id="AuoDzLXZq2x2FkoKTNY2-6" value="Exit" style="ellipse;whiteSpace=wrap;html=1;" vertex="1" parent="1">
          <mxGeometry x="260" y="420" width="100" height="60" as="geometry" />
        </mxCell>
        <mxCell id="AuoDzLXZq2x2FkoKTNY2-7" style="edgeStyle=orthogonalEdgeStyle;rounded=0;orthogonalLoop=1;jettySize=auto;html=1;exitX=0.5;exitY=1;exitDx=0;exitDy=0;" edge="1" parent="1" source="AuoDzLXZq2x2FkoKTNY2-1" target="AuoDzLXZq2x2FkoKTNY2-2">
          <mxGeometry relative="1" as="geometry" />
        </mxCell>
        <mxCell id="AuoDzLXZq2x2FkoKTNY2-8" style="edgeStyle=orthogonalEdgeStyle;rounded=0;orthogonalLoop=1;jettySize=auto;html=1;" edge="1" parent="1" source="AuoDzLXZq2x2FkoKTNY2-2" target="AuoDzLXZq2x2FkoKTNY2-3">
          <mxGeometry relative="1" as="geometry" />
        </mxCell>
        <mxCell id="AuoDzLXZq2x2FkoKTNY2-9" style="edgeStyle=orthogonalEdgeStyle;rounded=0;orthogonalLoop=1;jettySize=auto;html=1;" edge="1" parent="1" source="AuoDzLXZq2x2FkoKTNY2-3" target="AuoDzLXZq2x2FkoKTNY2-4">
          <mxGeometry relative="1" as="geometry" />
        </mxCell>
        <mxCell id="AuoDzLXZq2x2FkoKTNY2-10" style="edgeStyle=orthogonalEdgeStyle;rounded=0;orthogonalLoop=1;jettySize=auto;html=1;" edge="1" parent="1" source="AuoDzLXZq2x2FkoKTNY2-4" target="AuoDzLXZq2x2FkoKTNY2-5">
          <mxGeometry relative="1" as="geometry" />
        </mxCell>
        <mxCell id="AuoDzLXZq2x2FkoKTNY2-11" style="edgeStyle=orthogonalEdgeStyle;rounded=0;orthogonalLoop=1;jettySize=auto;html=1;" edge="1" parent="1" source="AuoDzLXZq2x2FkoKTNY2-5" target="AuoDzLXZq2x2FkoKTNY2-6">
          <mxGeometry relative="1" as="geometry" />
        </mxCell>
      </root>
    </mxGraphModel>
  </diagram>
</mxfile>
